# xmcd
#
# Track frame offsets:
#	150
#	17571
#	31678
#	47334
#	65299
#	80359
#	95054
#	112765
#	135589
#	153328
#	169037
#	187051
#	199426
#
# Disc length: 3069 seconds
#
# Revision: 1
# Processed by: cddbd v1.5.2PL0 Copyright (c) Steve Scherf et al.
# Submitted via: audiograbber 1.83.01
#
DISCID=9d0bfb0d
DTITLE=Jackie Payne/Steve Edmonson Band - Mastter Of The Game
DYEAR=2006
DGENRE=Blues
TTITLE0=Mean Evil Woman
TTITLE1=Master Of The Game
TTITLE2=The Real Deal
TTITLE3=A Fool Named Me
TTITLE4=Woman In Kansas City
TTITLE5=Sweet Landlady
TTITLE6=Black Cat Roun' My Do'
TTITLE7=Wake Me Up In San Francisco
TTITLE8=A Nickel And A Nail
TTITLE9=Just The One
TTITLE10=Warm Rain Fallin'
TTITLE11=Cabranito
TTITLE12=I'll Take Care Of You
EXTD=
EXTT0=
EXTT1=
EXTT2=
EXTT3=
EXTT4=
EXTT5=
EXTT6=
EXTT7=
EXTT8=
EXTT9=
EXTT10=
EXTT11=
EXTT12=
PLAYORDER=
